<svg xmlns="http://www.w3.org/2000/svg" viewBox="0 0 440 440"><defs><style>.cls-1{fill:#fff;}.cls-2{fill:#1a237e;}.cls-3{fill:#10a6fa;}.cls-4{fill:#3351ff;}</style></defs><title>资源 15</title><g id="图层_2" data-name="图层 2"><g id="Layer_1" data-name="Layer 1"><rect class="cls-1" width="440" height="440"/><rect class="cls-2" x="89.53" y="307.91" width="8.3" height="8.3"/><rect class="cls-2" x="89.53" y="326.51" width="8.3" height="50.53"/><path class="cls-2" d="M130,323.36a22.5,22.5,0,0,0-16.68,6.83,23.35,23.35,0,0,0-6.64,16.95v29.8h8V346.41a14.58,14.58,0,0,1,4.52-10.77A14.77,14.77,0,0,1,130,331.12a14.38,14.38,0,0,1,10.59,4.52,14.63,14.63,0,0,1,4.61,10.77v30.52h8v-29.8a23.35,23.35,0,0,0-6.64-16.95A22.39,22.39,0,0,0,130,323.36Z"/><path class="cls-2" d="M214.53,372v-21.7a27.59,27.59,0,0,0-27.75-27.47,26.12,26.12,0,0,0-18.56,8.36,26.78,26.78,0,0,0-7.53,19,27.31,27.31,0,0,0,8.17,19.74,25.35,25.35,0,0,0,19.49,7.81,25.87,25.87,0,0,0,18.33-8.22V373m0,0a15.8,15.8,0,0,1-5.41,11.93,18.09,18.09,0,0,1-12.67,5.16,18.55,18.55,0,0,1-11.29-3.77,17.3,17.3,0,0,1-6-7L165,382.92a24.38,24.38,0,0,0,6.63,8,27.26,27.26,0,0,0,16.16,5.7l1.18,0a27.27,27.27,0,0,0,17.36-6.17c5.45-4.34,8.22-9.91,8.22-16.54v-2m-8-21.17a19.5,19.5,0,0,1-5.61,13.49,17.15,17.15,0,0,1-13,5.59,18.21,18.21,0,0,1-13.47-5.6,18.81,18.81,0,0,1-5.78-13.57A19.11,19.11,0,0,1,173.88,337a18.17,18.17,0,0,1,13-6.3l1,0a17,17,0,0,1,13,5.8A19,19,0,0,1,206.5,350.81Z"/><path class="cls-2" d="M276.22,358h0l-.15.24a26.75,26.75,0,0,1-9.15,8.74,24.49,24.49,0,0,1-12.53,3.62c-7.3,0-13.68-2.91-19-8.65a29.23,29.23,0,0,1-7.59-20.67,28.77,28.77,0,0,1,7.83-19.6,24.2,24.2,0,0,1,18.22-8.21c9.58-.09,16.81,3.87,22.1,12.09l.15.24h.15l6.23-3.85A34.54,34.54,0,0,0,272.2,311a32.11,32.11,0,0,0-17.83-5.39,31.28,31.28,0,0,0-23.81,10.14c-6.63,6.83-10,15.53-10,25.87a37.39,37.39,0,0,0,9.9,25.95c6.54,7.1,14.47,10.7,23.57,10.7h.34c12-.25,21.81-6,28.09-16.41Z"/><polygon class="cls-2" points="322.74 306.52 314.28 306.52 282.83 376.93 292.87 376.93 302.59 353.53 302.6 353.53 306.04 346.22 306.02 346.22 318.68 316.5 331.09 346.22 313.28 346.22 310.03 353.53 333.98 353.53 343.79 376.93 352.64 376.93 322.74 306.52"/><path class="cls-2" d="M398.66,313a25.23,25.23,0,0,0-17.47-6.35H358.4v70.31h8.3V349.39h0V342h0V314.2h14.84A16.48,16.48,0,0,1,392.37,318a12.08,12.08,0,0,1,4.92,9.32A12.36,12.36,0,0,1,392.88,338,15.61,15.61,0,0,1,382,342h-8.6v7.4h9.95a22.25,22.25,0,0,0,15.49-5.9,19.34,19.34,0,0,0,6.66-14.62A19.9,19.9,0,0,0,398.66,313Z"/><path class="cls-2" d="M74.75,313a25.23,25.23,0,0,0-17.47-6.35H34.5v70.31h8.3V349.39h0V342h0V314.2H57.64A16.48,16.48,0,0,1,68.46,318a12.08,12.08,0,0,1,4.92,9.32A12.36,12.36,0,0,1,69,338a15.61,15.61,0,0,1-10.88,4H49.5v7.4h9.95a22.25,22.25,0,0,0,15.49-5.9,19.34,19.34,0,0,0,6.66-14.62A19.9,19.9,0,0,0,74.75,313Z"/><path class="cls-2" d="M130.41,323.42a22.43,22.43,0,0,0-16.63,6.8,23.27,23.27,0,0,0-6.62,16.89v29.71h8V346.4a14.54,14.54,0,0,1,4.5-10.74,14.72,14.72,0,0,1,10.74-4.51A14.34,14.34,0,0,1,141,335.66a14.59,14.59,0,0,1,4.59,10.74v30.43h8V347.12A23.27,23.27,0,0,0,147,330.22,22.32,22.32,0,0,0,130.41,323.42Z"/><path class="cls-2" d="M240,90.68l-88-25.1a9.5,9.5,0,0,0-12.11,9.13v162.2a9.51,9.51,0,0,0,9.48,9.5,9.58,9.58,0,0,0,2.22-.26l88-21h0a9.47,9.47,0,0,0,7.3-9.24V99.81A9.54,9.54,0,0,0,240,90.68Z"/><path class="cls-3" d="M300,84.91a9.54,9.54,0,0,0-6.88-9.11l-112-32.09A9.5,9.5,0,0,0,169,52.84V175.92a9.51,9.51,0,0,0,9.48,9.5,9.56,9.56,0,0,0,2.24-.27l112.14-27a9.47,9.47,0,0,0,7.28-9.25Z"/><path class="cls-4" d="M240,90.68,169,70.41V175.92a9.51,9.51,0,0,0,9.48,9.5,9.56,9.56,0,0,0,2.24-.27l66.24-15.94V99.81A9.54,9.54,0,0,0,240,90.68Z"/></g></g></svg>