<svg xmlns="http://www.w3.org/2000/svg" viewBox="0 0 940 300"><defs><style>.cls-1{fill:#fff;}.cls-2{fill:#1a237e;}.cls-3{fill:#172d72;}.cls-4{fill:#10a6fa;}.cls-5{fill:#3351ff;}</style></defs><title>资源 15</title><g id="图层_2" data-name="图层 2"><g id="Layer_1" data-name="Layer 1"><rect class="cls-1" width="940" height="300"/><path class="cls-2" d="M185.16,96.46l-88-25.1a9.5,9.5,0,0,0-12.11,9.13v162.2a9.51,9.51,0,0,0,9.48,9.5,9.58,9.58,0,0,0,2.22-.26l88-21h0a9.47,9.47,0,0,0,7.3-9.24V105.59A9.54,9.54,0,0,0,185.16,96.46Z"/><path class="cls-3" d="M661.15,175.38h0l-.23.36a40.09,40.09,0,0,1-13.72,13.1,36.71,36.71,0,0,1-18.78,5.43c-10.95,0-20.51-4.37-28.42-13a43.82,43.82,0,0,1-11.38-31,43.13,43.13,0,0,1,11.74-29.39c7.63-8.17,16.81-12.31,27.3-12.31,14.36-.13,25.2,5.8,33.12,18.13l.23.36h.22l9.34-5.77a51.77,51.77,0,0,0-15.42-16.4,48.14,48.14,0,0,0-26.73-8.08,46.88,46.88,0,0,0-35.69,15.21c-9.94,10.23-15,23.28-15,38.78,0,15,5,28.08,14.84,38.9,9.81,10.64,21.69,16,35.33,16h.51c17.92-.38,32.7-9.06,42.11-24.6Z"/><polygon class="cls-3" points="730.89 98.21 718.21 98.21 671.06 203.74 686.11 203.74 700.68 168.66 700.7 168.66 705.85 157.7 705.83 157.7 724.81 113.16 743.41 157.7 716.71 157.7 711.84 168.66 747.74 168.66 762.45 203.74 775.71 203.74 730.89 98.21"/><path class="cls-3" d="M844.69,107.86c-7-6.32-15.82-9.52-26.19-9.52H784.35v105.4h12.44V162.46h0v-11.1h0V109.71H819a24.71,24.71,0,0,1,16.22,5.63,18.1,18.1,0,0,1,7.37,14c.39,6.63-1.77,11.88-6.61,16.07a23.4,23.4,0,0,1-16.31,6H806.83v11.1h14.91A33.35,33.35,0,0,0,845,153.61a29,29,0,0,0,10-21.91C855.08,122,851.63,114,844.69,107.86Z"/><path class="cls-4" d="M245.1,90.69a9.54,9.54,0,0,0-6.88-9.11l-112-32.09a9.5,9.5,0,0,0-12.12,9.13V181.7a9.51,9.51,0,0,0,9.48,9.5,9.56,9.56,0,0,0,2.24-.27l112.14-27a9.47,9.47,0,0,0,7.28-9.25Z"/><path class="cls-5" d="M185.16,96.46,114.09,76.19V181.7a9.51,9.51,0,0,0,9.48,9.5,9.56,9.56,0,0,0,2.24-.27L192.05,175v-69.4A9.54,9.54,0,0,0,185.16,96.46Z"/><rect class="cls-2" x="381.3" y="100.29" width="12.44" height="12.44"/><rect class="cls-2" x="381.3" y="128.16" width="12.44" height="75.74"/><path class="cls-2" d="M568.68,196.33V163.8a38.59,38.59,0,0,0-12.25-29.2c-8.22-8.22-18.1-12.27-29.35-12a39.16,39.16,0,0,0-27.82,12.53A40.14,40.14,0,0,0,488,163.66a40.93,40.93,0,0,0,12.25,29.59c8.18,8.18,18,12.12,29.22,11.71a38.78,38.78,0,0,0,27.48-12.33v5.16m0,0a23.68,23.68,0,0,1-8.11,17.89,27.12,27.12,0,0,1-19,7.73,27.8,27.8,0,0,1-16.92-5.65,25.94,25.94,0,0,1-9-10.54l-9.53,5.5a36.54,36.54,0,0,0,9.94,12c6.6,5.25,14.75,8.13,24.23,8.54q.89,0,1.77,0a40.88,40.88,0,0,0,26-9.25c8.17-6.51,12.32-14.85,12.32-24.8v-2.95m-12-31.74a29.22,29.22,0,0,1-8.41,20.22,25.7,25.7,0,0,1-19.5,8.38,27.3,27.3,0,0,1-20.19-8.39,28.2,28.2,0,0,1-8.66-20.34,28.65,28.65,0,0,1,7.88-20.61,27.24,27.24,0,0,1,19.53-9.45c.51,0,1,0,1.5,0,7.61,0,14,2.85,19.45,8.69A28.49,28.49,0,0,1,556.64,164.59Z"/><path class="cls-2" d="M359.15,107.86c-7-6.32-15.82-9.52-26.19-9.52H298.82v105.4h12.44V162.46h0v-11.1h0V109.71h22.25a24.71,24.71,0,0,1,16.22,5.63,18.1,18.1,0,0,1,7.37,14c.39,6.63-1.77,11.88-6.61,16.07a23.4,23.4,0,0,1-16.31,6H321.3v11.1h14.91a33.35,33.35,0,0,0,23.22-8.85,29,29,0,0,0,10-21.91C369.55,122,366.1,114,359.15,107.86Z"/><path class="cls-2" d="M442.59,123.52c-9.91,0-18.3,3.43-24.93,10.2S407.74,149,407.74,159v44.54h12V158a21.79,21.79,0,0,1,6.75-16.1,22.07,22.07,0,0,1,16.1-6.75,21.49,21.49,0,0,1,15.83,6.75,21.86,21.86,0,0,1,6.89,16.1v45.61h12V159c0-10.09-3.34-18.61-9.92-25.33A33.46,33.46,0,0,0,442.59,123.52Z"/></g></g></svg>