<svg xmlns="http://www.w3.org/2000/svg" viewBox="0 0 160.18 203.08"><defs><style>.cls-1{fill:#1a237e;}.cls-2{fill:#10a6fa;}.cls-3{fill:#3351ff;}</style></defs><title>资源 15</title><g id="图层_2" data-name="图层 2"><g id="Layer_1" data-name="Layer 1"><path class="cls-1" d="M100.11,47.34l-88-25.1A9.5,9.5,0,0,0,0,31.38v162.2a9.51,9.51,0,0,0,9.48,9.5,9.58,9.58,0,0,0,2.22-.26l88-21h0a9.47,9.47,0,0,0,7.3-9.24V56.48A9.54,9.54,0,0,0,100.11,47.34Z"/><path class="cls-2" d="M160.05,41.57a9.54,9.54,0,0,0-6.88-9.11L41.16.37A9.5,9.5,0,0,0,29,9.51V132.59a9.51,9.51,0,0,0,9.48,9.5,9.56,9.56,0,0,0,2.24-.27l112.14-27a9.47,9.47,0,0,0,7.28-9.25Z"/><path class="cls-3" d="M100.11,47.34,29,27.07V132.59a9.51,9.51,0,0,0,9.48,9.5,9.56,9.56,0,0,0,2.24-.27L107,125.88V56.48A9.54,9.54,0,0,0,100.11,47.34Z"/></g></g></svg>